<?xml version="1.0" encoding="utf-8"?>
<!-- Generator: Adobe Illustrator 27.0.0, SVG Export Plug-In . SVG Version: 6.00 Build 0)  -->
<svg version="1.1" id="a" xmlns="http://www.w3.org/2000/svg" xmlns:xlink="http://www.w3.org/1999/xlink" x="0px" y="0px"
	 viewBox="0 0 24 24" style="enable-background:new 0 0 24 24;" xml:space="preserve">
<g>
	<path d="M17.2,6.4c1.2,0,2.2,0.5,3,1.5l0.4,0.5c0.7,0.9,1.1,2.1,1,3.3c-0.1,1.2-0.6,2.3-1.5,3.1l-8,7.5l-8-7.5
		c-0.9-0.8-1.4-1.9-1.5-3.1c-0.1-1.2,0.3-2.4,1-3.3l0.4-0.5c0.7-0.9,1.8-1.5,3-1.5c0.1,0,0.3,0,0.4,0C8.3,6.5,9.3,7.1,9.9,8l0.8,1.2
		L12,11l1.2-1.8L14.1,8c0.6-0.9,1.6-1.5,2.7-1.6C16.9,6.4,17,6.4,17.2,6.4 M17.2,4.9c-0.2,0-0.4,0-0.6,0c-1.5,0.2-2.9,1-3.8,2.2
		L12,8.3l-0.8-1.2C10.3,5.9,8.9,5,7.4,4.9c-0.2,0-0.4,0-0.6,0c-1.6,0-3.1,0.7-4.1,2L2.3,7.4c-1,1.2-1.4,2.8-1.3,4.4
		c0.1,1.6,0.8,3,2,4.1l8.2,7.7c0.3,0.3,0.5,0.4,0.7,0.5c0,0,0.1,0,0.1,0c0,0,0.1,0,0.1,0c0.2,0,0.3-0.2,0.7-0.5l8.2-7.7
		c1.1-1.1,1.8-2.5,2-4.1c0.1-1.6-0.3-3.1-1.3-4.4l-0.4-0.5C20.3,5.6,18.8,4.9,17.2,4.9L17.2,4.9z"/>
</g>
</svg>
