<?xml version="1.0" encoding="UTF-8"?><svg id="a" xmlns="http://www.w3.org/2000/svg" viewBox="0 0 680.35 599.57"><defs><style>.b{stroke:#fff;stroke-miterlimit:10;}</style></defs><path class="b" d="M340.18,599.07c-3.22,0-6.45-.32-9.65-.95-14.1-2.76-22.88-11.01-33.05-20.56L65.71,359.83h0C28.11,324.52,5.18,276.74,1.14,225.32-2.9,173.89,12.29,123.12,43.91,82.37l10.31-13.29C92.18,20.16,151.58-5.09,213.14,1.54c52.22,5.62,98.05,33.34,127.03,75.73C369.15,34.88,414.98,7.17,467.21,1.54c61.55-6.63,120.97,18.62,158.92,67.53l10.31,13.29c31.62,40.76,46.81,91.52,42.77,142.95-4.04,51.43-26.97,99.2-64.57,134.52l-231.75,217.71c-10.2,9.57-18.97,17.82-33.09,20.59-3.19,.63-6.4,.94-9.62,.94Zm10.06-63.65s0,0,0,0c0,0,0,0,0,0ZM193.92,67.18c-33.97,0-65.85,15.48-87.03,42.77l-10.31,13.29c-21.43,27.62-31.72,62.01-28.98,96.86,2.74,34.85,18.28,67.22,43.75,91.15l228.82,214.96,228.82-214.96c25.48-23.93,41.01-56.3,43.75-91.15,2.74-34.85-7.56-69.25-28.98-96.86l-10.31-13.29c-23.67-30.5-60.72-46.25-99.11-42.11-38.39,4.13-71.23,27.41-87.87,62.25-8.6,18.02-26.34,29.21-46.31,29.21-19.96,0-37.7-11.19-46.3-29.21-16.63-34.85-49.48-58.12-87.87-62.25-4.05-.44-8.08-.65-12.08-.65Z"/></svg>