<?xml version="1.0" encoding="utf-8"?>
<!-- Generator: Adobe Illustrator 27.0.0, SVG Export Plug-In . SVG Version: 6.00 Build 0)  -->
<svg version="1.1" id="a" xmlns="http://www.w3.org/2000/svg" xmlns:xlink="http://www.w3.org/1999/xlink" x="0px" y="0px"
	 viewBox="0 0 24 24" style="enable-background:new 0 0 24 24;" xml:space="preserve">
<path d="M21,15.8c1.1-1.1,1.8-2.5,2-4.1c0.1-1.6-0.3-3.1-1.3-4.4l-0.4-0.5c-1-1.3-2.5-2-4.1-2c-0.2,0-0.4,0-0.6,0
	c-1.5,0.2-2.9,1-3.8,2.2L12,8.3l-0.8-1.2C10.3,5.9,8.9,5,7.4,4.9c-0.2,0-0.4,0-0.6,0c-1.6,0-3.1,0.7-4.1,2L2.3,7.4
	c-1,1.2-1.4,2.8-1.3,4.4c0.1,1.6,0.8,3,2,4.1l8.2,7.7c0.3,0.3,0.5,0.4,0.7,0.5c0,0,0.1,0,0.1,0c0,0,0.1,0,0.1,0
	c0.2,0,0.3-0.2,0.7-0.5L21,15.8z"/>
</svg>
