<?xml version="1.0" encoding="utf-8"?>
<!-- Generator: Adobe Illustrator 27.0.0, SVG Export Plug-In . SVG Version: 6.00 Build 0)  -->
<svg version="1.1" id="Layer_1" xmlns="http://www.w3.org/2000/svg" xmlns:xlink="http://www.w3.org/1999/xlink" x="0px" y="0px"
	 viewBox="0 0 24 24" style="enable-background:new 0 0 24 24;" xml:space="preserve">
<g>
	<path d="M16.7,20.7H4.1c-1.1,0-2-0.9-2-2V9c0-0.5,0.2-1,0.5-1.3C3.1,7.2,3,6.5,2.6,6.1C2.2,5.7,1.5,5.8,1.1,6.2C0.4,6.9,0,7.9,0,9
		v9.8c0,2.3,1.8,4.1,4.1,4.1h12.6c0.6,0,1.1-0.5,1.1-1.1C17.7,21.2,17.3,20.7,16.7,20.7L16.7,20.7z"/>
	<path d="M12.9,18.5c0-0.6-0.5-1.1-1.1-1.1c-2.1,0-3.9-1.7-3.9-3.9C8,13,7.6,12.5,7,12.5S5.9,13,5.9,13.6c0,3.3,2.7,6,6,6
		C12.5,19.6,12.9,19.1,12.9,18.5z"/>
	<path d="M23.7,22.2l-0.9-0.9c0.6-0.7,0.9-1.6,0.9-2.6c0-0.6-0.5-1.1-1.1-1.1c-0.6,0-1.1,0.5-1.1,1.1c0,0.4-0.1,0.7-0.3,1.1
		l-3.9-3.9c0.3-0.7,0.4-1.5,0.4-2.2c0-3.3-2.7-6-6-6c-0.8,0-1.5,0.1-2.2,0.4L7.9,6.2c0-0.1,0-0.1,0-0.2V5c0-0.7,0.6-1.3,1.3-1.3h5.2
		c0.7,0,1.3,0.6,1.3,1.3v1c0,0.6,0.5,1.1,1.1,1.1h2.9c1.1,0,2,0.9,2,2v5.4c0,0.6,0.5,1.1,1.1,1.1c0.6,0,1.1-0.5,1.1-1.1V9
		c0-2.3-1.8-4.1-4.1-4.1h-1.8c-0.1-1.9-1.6-3.3-3.4-3.3H9.2c-1.6,0-3,1.1-3.3,2.6L2.1,0.3C1.7-0.1,1-0.1,0.6,0.3
		c-0.4,0.4-0.4,1.1,0,1.5l21.6,21.9c0.2,0.2,0.5,0.3,0.8,0.3c0.3,0,0.5-0.1,0.7-0.3C24.1,23.3,24.1,22.6,23.7,22.2L23.7,22.2z
		 M11.9,9.8c2.1,0,3.9,1.7,3.9,3.9c0,0.2,0,0.3-0.1,0.5l-4.2-4.3C11.6,9.8,11.7,9.8,11.9,9.8z"/>
</g>
</svg>
