<svg height="800" viewBox="0 0 56 56" width="800" xmlns="http://www.w3.org/2000/svg"><path d="m44.5235 48.6602 1.6172-34.2657h2.3437c.961 0 1.7343-.7969 1.7343-1.7578s-.7733-1.7812-1.7343-1.7812h-10.2422v-3.5157c0-3.3515-2.2734-5.5312-5.8827-5.5312h-8.7657c-3.6094 0-5.8594 2.1797-5.8594 5.5312v3.5157h-10.1953c-.9375 0-1.7578.8203-1.7578 1.7812s.8203 1.7578 1.7578 1.7578h2.3438l1.6171 34.2891c.1641 3.375 2.3907 5.5078 5.7657 5.5078h21.4922c3.3516 0 5.6016-2.1563 5.7656-5.5312zm-23.0391-41.086c0-1.3359.9844-2.2734 2.3907-2.2734h8.2265c1.4297 0 2.4141.9375 2.4141 2.2734v3.2813h-13.0313zm-3.8671 43.1016c-1.3594 0-2.3673-1.0313-2.4376-2.3906l-1.6406-33.8907h28.8516l-1.5469 33.8907c-.0703 1.3828-1.0547 2.3906-2.4375 2.3906zm17.3437-4.125c.7734 0 1.3594-.6328 1.3828-1.5235l.7031-24.75c.0235-.8906-.5859-1.5468-1.3828-1.5468-.7265 0-1.3359.6797-1.3593 1.5234l-.7032 24.7734c-.0234.8438.5625 1.5235 1.3594 1.5235zm-13.8984 0c.7969 0 1.3828-.6797 1.3593-1.5235l-.7031-24.7734c-.0234-.8437-.6562-1.5234-1.3828-1.5234-.7969 0-1.3828.6562-1.3594 1.5468l.7266 24.75c.0234.8907.5859 1.5235 1.3594 1.5235zm8.3672-1.5235v-24.7734c0-.8437-.6329-1.5234-1.4063-1.5234-.7735 0-1.4297.6797-1.4297 1.5234v24.7734c0 .8438.6562 1.5235 1.4297 1.5235.75 0 1.4063-.6797 1.4063-1.5235z"/></svg>