<?xml version="1.0" encoding="utf-8"?>
<!-- Generator: Adobe Illustrator 27.0.0, SVG Export Plug-In . SVG Version: 6.00 Build 0)  -->
<svg version="1.1" id="Layer_1" xmlns="http://www.w3.org/2000/svg" xmlns:xlink="http://www.w3.org/1999/xlink" x="0px" y="0px"
	 viewBox="0 0 24 24" style="enable-background:new 0 0 24 24;" xml:space="preserve">
<path d="M19.5,21.4l0.7-15.6h1.1c0.4,0,0.8-0.4,0.8-0.8c0-0.4-0.4-0.8-0.8-0.8h-4.7V2.6c0-1.5-1-2.5-2.7-2.5h-4
	c-1.6,0-2.7,1-2.7,2.5v1.6H2.7C2.3,4.2,1.9,4.6,1.9,5c0,0.4,0.4,0.8,0.8,0.8h1.1l0.7,15.6c0.1,1.5,1.1,2.5,2.6,2.5h9.8
	C18.4,23.9,19.5,22.9,19.5,21.4z M9,2.7c0-0.6,0.4-1,1.1-1h3.7c0.7,0,1.1,0.4,1.1,1v1.5H9V2.7z M7.3,22.3c-0.6,0-1.1-0.5-1.1-1.1
	L5.4,5.8h13.1l-0.7,15.4c0,0.6-0.5,1.1-1.1,1.1H7.3z M15.2,20.4c0.4,0,0.6-0.3,0.6-0.7l0.3-11.3c0-0.4-0.3-0.7-0.6-0.7
	c-0.3,0-0.6,0.3-0.6,0.7l-0.3,11.3C14.5,20.1,14.8,20.4,15.2,20.4L15.2,20.4z M8.8,20.4c0.4,0,0.6-0.3,0.6-0.7L9.1,8.5
	c0-0.4-0.3-0.7-0.6-0.7c-0.4,0-0.6,0.3-0.6,0.7l0.3,11.3C8.2,20.2,8.5,20.4,8.8,20.4L8.8,20.4z M12.7,19.8V8.5
	c0-0.4-0.3-0.7-0.6-0.7c-0.4,0-0.7,0.3-0.7,0.7v11.3c0,0.4,0.3,0.7,0.7,0.7C12.4,20.4,12.7,20.1,12.7,19.8z"/>
</svg>
