<svg viewBox="0 0 24 24" xmlns="http://www.w3.org/2000/svg"><path d="m22.7 9.2h-7.3l5.8-5.8c.7-.7.7-1.9 0-2.6-.7-.7-1.9-.7-2.6 0l-7.7 7.7c-.2.2-.4.5-.4.8h-9.2c-.7-.1-1.3.5-1.3 1.2v1.1c0 .7.6 1.3 1.3 1.3h.1l1.5 8.5c.2 1.4 1.3 2.4 2.7 2.4h13c1.4-.1 2.5-1.1 2.7-2.4l1.5-8.5h.1c.7 0 1.3-.6 1.3-1.3v-1.1c-.2-.7-.8-1.3-1.5-1.3zm-11.5.4c0-.2.1-.4.3-.6l7.7-7.7c.4-.4 1-.4 1.4 0 .4.4.4 1 0 1.4l-7.7 7.7c-.4.4-1 .4-1.4 0-.3-.1-.4-.4-.3-.8zm10.6 3.2-1.5 8.4c-.1.9-.9 1.7-1.8 1.7h-13c-.9-.1-1.7-.8-1.8-1.7l-1.5-8.4m21-1.3c0 .2-.2.4-.4.4h-21.5c-.2 0-.4-.2-.4-.4v-1.1c-.1-.2.1-.4.4-.4h9.1c.1.4.2.8.5 1 .7.7 1.9.7 2.6 0l1.1-1.1h8.1c.2 0 .4.2.4.4z"/><path d="m5.9 22.3c-.2 0-.5-.2-.5-.4l-1-7.8c0-.3.2-.5.4-.6.3 0 .5.2.6.4l1 7.8c0 .3-.2.5-.5.6z"/><path d="m8.9 22.3c-.2 0-.5-.2-.5-.4l-1-7.8c0-.3.2-.5.4-.6.3 0 .5.2.6.4l1 7.8c0 .3-.2.5-.5.6z"/><path d="m11.9 22.3c-.3 0-.5-.2-.5-.5v-7.8c0-.3.2-.5.5-.5s.5.2.5.5v7.8c0 .2-.3.5-.5.5z"/><path d="m14.9 22.3c-.1 0-.1 0 0 0-.3 0-.5-.3-.5-.6l1-7.8c0-.3.3-.5.6-.4.3 0 .5.3.4.6l-1 7.8c-.1.2-.3.4-.5.4z"/><path d="m17.9 22.3c-.1 0-.1 0 0 0-.3 0-.5-.3-.5-.6l1-7.8c0-.3.3-.5.6-.4.3 0 .5.3.4.6l-1 7.8c-.1.2-.3.4-.5.4z"/></svg>