<?xml version="1.0" encoding="UTF-8"?><svg id="Layer_1" xmlns="http://www.w3.org/2000/svg" viewBox="0 0 24 24"><g id="_07_remove_basket"><path d="m22.72,9.2h-7.28l5.76-5.76c.73-.72.73-1.9,0-2.62,0,0,0,0,0,0l-.04-.04c-.73-.72-1.9-.72-2.63,0l-7.67,7.67c-.21.21-.36.47-.45.76H1.28C.57,9.2,0,9.78,0,10.48c0,0,0,0,0,0v1.06c0,.71.57,1.28,1.28,1.28h.07l1.49,8.52c.18,1.35,1.3,2.37,2.66,2.43h13.01c1.36-.06,2.48-1.08,2.66-2.43l1.49-8.52h.07c.71,0,1.28-.57,1.28-1.28h0v-1.06c0-.71-.57-1.28-1.28-1.28h0Zm-11.54.4c.03-.21.13-.41.28-.56l7.67-7.67c.4-.4,1.04-.4,1.44,0l.04.04c.4.4.4,1.04,0,1.44,0,0,0,0,0,0l-7.67,7.67c-.4.38-1.04.38-1.44,0l-.04-.03c-.21-.21-.32-.5-.29-.8,0-.02.01-.04.01-.05,0,0,0-.01,0-.02Zm9.15,11.59c-.11.94-.88,1.67-1.83,1.73H5.49c-.95-.06-1.72-.79-1.83-1.73l-1.46-8.37h19.58l-1.46,8.37Zm2.83-9.65c0,.24-.2.44-.44.44H1.28c-.24,0-.44-.2-.44-.44,0,0,0,0,0,0v-1.06c0-.24.2-.44.44-.44h9.07c.06.39.24.75.51,1.03h0l.03.04c.73.72,1.9.72,2.63,0l1.07-1.07h8.12c.24,0,.44.2.44.44h0v1.06Z"/><path d="m12.41,10.05c.11,0,.21-.04.29-.11l.86-.8c.17-.16.18-.43.02-.6-.16-.17-.43-.18-.6-.02l-.86.8c-.17.16-.18.43-.02.6.08.09.19.13.31.13Z"/></g></svg>