<?xml version="1.0" encoding="utf-8"?>
<!-- Generator: Adobe Illustrator 27.0.0, SVG Export Plug-In . SVG Version: 6.00 Build 0)  -->
<svg version="1.1" id="Layer_1" xmlns="http://www.w3.org/2000/svg" xmlns:xlink="http://www.w3.org/1999/xlink" x="0px" y="0px"
	 viewBox="0 0 24 24" style="enable-background:new 0 0 24 24;" xml:space="preserve">
<g id="_07_remove_basket">
	<g>
		<path d="M22.7,9.2h-7.3l5.8-5.8c0.7-0.7,0.7-1.9,0-2.6l0,0l0,0c-0.7-0.7-1.9-0.7-2.6,0l-7.7,7.7c-0.2,0.2-0.4,0.5-0.4,0.8H1.3
			C0.6,9.2,0,9.8,0,10.5l0,0v1.1c0,0.7,0.6,1.3,1.3,1.3h0.1l1.5,8.5c0.2,1.4,1.3,2.4,2.7,2.4h13c1.4-0.1,2.5-1.1,2.7-2.4l1.5-8.5
			h0.1c0.7,0,1.3-0.6,1.3-1.3l0,0v-1.1C24,9.8,23.4,9.2,22.7,9.2L22.7,9.2L22.7,9.2z M11.2,9.6c0-0.2,0.1-0.4,0.3-0.6l7.7-7.7
			c0.4-0.4,1-0.4,1.4,0l0,0c0.4,0.4,0.4,1,0,1.4l0,0l-7.7,7.7c-0.4,0.4-1,0.4-1.4,0l0,0C11.2,10.3,11.1,10,11.2,9.6
			C11.2,9.7,11.2,9.6,11.2,9.6C11.2,9.6,11.2,9.6,11.2,9.6L11.2,9.6z M21.8,12.8l-1.5,8.4h0c-0.1,0.9-0.9,1.7-1.8,1.7h-13
			c-0.9-0.1-1.7-0.8-1.8-1.7l-1.5-8.4 M23.2,11.5c0,0.2-0.2,0.4-0.4,0.4H1.3c-0.2,0-0.4-0.2-0.4-0.4l0,0v-1.1C0.8,10.2,1,10,1.3,10
			h9.1c0.1,0.4,0.2,0.8,0.5,1l0,0l0,0c0.7,0.7,1.9,0.7,2.6,0l1.1-1.1h8.1c0.2,0,0.4,0.2,0.4,0.4l0,0L23.2,11.5L23.2,11.5z"/>
	</g>
</g>
<g>
	<path d="M5.9,22.3c-0.2,0-0.5-0.2-0.5-0.4l-1-7.8c0-0.3,0.2-0.5,0.4-0.6c0.3,0,0.5,0.2,0.6,0.4l1,7.8C6.4,22,6.2,22.2,5.9,22.3
		C5.9,22.3,5.9,22.3,5.9,22.3z"/>
</g>
<g>
	<path d="M8.9,22.3c-0.2,0-0.5-0.2-0.5-0.4l-1-7.8c0-0.3,0.2-0.5,0.4-0.6c0.3,0,0.5,0.2,0.6,0.4l1,7.8C9.4,22,9.2,22.2,8.9,22.3
		C8.9,22.3,8.9,22.3,8.9,22.3z"/>
</g>
<g>
	<path d="M11.9,22.3c-0.3,0-0.5-0.2-0.5-0.5V14c0-0.3,0.2-0.5,0.5-0.5s0.5,0.2,0.5,0.5v7.8C12.4,22,12.1,22.3,11.9,22.3z"/>
</g>
<g>
	<path d="M14.9,22.3C14.8,22.3,14.8,22.3,14.9,22.3c-0.3,0-0.5-0.3-0.5-0.6l1-7.8c0-0.3,0.3-0.5,0.6-0.4c0.3,0,0.5,0.3,0.4,0.6
		l-1,7.8C15.3,22.1,15.1,22.3,14.9,22.3z"/>
</g>
<g>
	<path d="M17.9,22.3C17.8,22.3,17.8,22.3,17.9,22.3c-0.3,0-0.5-0.3-0.5-0.6l1-7.8c0-0.3,0.3-0.5,0.6-0.4c0.3,0,0.5,0.3,0.4,0.6
		l-1,7.8C18.3,22.1,18.1,22.3,17.9,22.3z"/>
</g>
</svg>
