<?xml version="1.0" encoding="UTF-8"?><svg id="a" xmlns="http://www.w3.org/2000/svg" viewBox="0 0 680.35 599.57"><defs><style>.b{stroke:#fff;stroke-miterlimit:10;}</style></defs><path class="b" d="M340.18,599.07c-3.22,0-6.45-.32-9.65-.95-14.1-2.76-22.88-11.01-33.05-20.56L65.71,359.83h0C28.11,324.52,5.18,276.74,1.14,225.32-2.9,173.89,12.29,123.12,43.91,82.37l10.31-13.29C92.18,20.16,151.58-5.09,213.14,1.54c52.22,5.62,98.05,33.34,127.03,75.73C369.15,34.88,414.98,7.17,467.21,1.54c61.55-6.63,120.97,18.62,158.92,67.53l10.31,13.29c31.62,40.76,46.81,91.52,42.77,142.95s-26.97,99.2-64.57,134.52l-231.75,217.71c-10.2,9.57-18.97,17.82-33.09,20.59-3.19,.63-6.4,.94-9.62,.94h0Zm10.06-63.65h0Z"/></svg>