<svg viewBox="0 0 22.52 22.55" xmlns="http://www.w3.org/2000/svg"><path d="m15.65 19.43h-11.81c-1.02 0-1.84-.83-1.84-1.84v-9.16c0-.47.17-.91.49-1.25.38-.4.35-1.04-.05-1.41-.4-.38-1.04-.35-1.41.05-.66.71-1.03 1.64-1.03 2.62v9.16c0 2.12 1.72 3.84 3.84 3.84h11.81c.55 0 1-.45 1-1s-.45-1-1-1z"/><path d="m12.15 17.41c0-.55-.45-1-1-1-2 0-3.62-1.62-3.62-3.62 0-.55-.45-1-1-1s-1 .45-1 1c0 3.1 2.52 5.62 5.62 5.62.55 0 1-.45 1-1z"/><path d="m22.23 20.84-.81-.82c.56-.68.88-1.54.88-2.43 0-.55-.45-1-1-1s-1 .45-1 1c0 .36-.11.7-.3.99l-3.64-3.69c.27-.67.41-1.38.41-2.1 0-3.1-2.52-5.62-5.62-5.62-.71 0-1.39.14-2.04.39l-1.74-1.76c.02-.07.04-.13.04-.21v-.91c0-.68.55-1.23 1.23-1.23h4.9c.68 0 1.23.55 1.23 1.23v.91c0 .55.45 1 1 1h2.68c1.02 0 1.84.83 1.84 1.84v5.03c0 .55.45 1 1 1s1-.45 1-1v-5.03c0-2.12-1.72-3.84-3.84-3.84h-1.68c-.05-1.74-1.48-3.14-3.23-3.14h-4.9c-1.52 0-2.78 1.05-3.13 2.47l-3.57-3.62c-.39-.39-1.02-.4-1.41 0-.39.39-.4 1.02 0 1.41l20.28 20.54c.2.2.45.3.71.3s.51-.1.7-.29c.39-.39.4-1.02 0-1.42zm-11.08-11.67c2 0 3.62 1.62 3.62 3.62 0 .15-.03.3-.05.44l-3.97-4.02c.13-.01.27-.04.4-.04z"/></svg>