<?xml version="1.0" encoding="UTF-8"?><svg id="a" xmlns="http://www.w3.org/2000/svg" viewBox="0 0 24 24"><path d="M12.89,.92h0M11.99-.03c-.29,0-.57,.16-.67,.5l-2.35,7.55c-.1,.35-.35,.45-.7,.45H.77c-.7,0-1.05,1-.45,1.45l6.1,4.5c.25,.2,.35,.55,.25,.85l-2.8,7.7c-.26,.72,.59,1.29,1.15,.85l6.6-4.9c.15-.1,.31-.15,.47-.15s.31,.05,.43,.15l6.55,4.9c.56,.44,1.36-.13,1.15-.85l-2.9-7.7c-.1-.3,0-.65,.25-.85l6.1-4.5c.6-.45,.3-1.45-.45-1.45h-7.5c-.3,0-.6-.15-.7-.45L12.73,.52h0c-.1-.36-.42-.55-.73-.55h0Z"/></svg>